<svg width="13" height="20" viewBox="0 0 13 20" fill="none" xmlns="http://www.w3.org/2000/svg">
<path d="M4.02799 9.99701L11.97 2.43601C12.2508 2.17562 12.4104 1.80998 12.4104 1.42701C12.4104 1.04404 12.2508 0.678401 11.97 0.418012C11.3712 -0.139012 10.4438 -0.139012 9.84499 0.418012L0.844987 8.98601C0.573825 9.23932 0.416279 9.59127 0.407997 9.96225C0.399716 10.3332 0.541399 10.6919 0.800987 10.957L9.83699 19.584C10.4362 20.1401 11.3628 20.1401 11.962 19.584C12.2428 19.3236 12.4024 18.958 12.4024 18.575C12.4024 18.192 12.2428 17.8264 11.962 17.566L4.02799 9.99701Z" fill="#434B50"/>
</svg>
