<svg width="11" height="13" viewBox="0 0 11 13" fill="none" xmlns="http://www.w3.org/2000/svg">
<path d="M5.09565 0C4.41993 0 3.77188 0.260762 3.29407 0.72492C2.81626 1.18908 2.54783 1.81861 2.54783 2.47503C2.54783 3.13145 2.81626 3.76098 3.29407 4.22514C3.77188 4.6893 4.41993 4.95006 5.09565 4.95006C5.77138 4.95006 6.41943 4.6893 6.89724 4.22514C7.37505 3.76098 7.64348 3.13145 7.64348 2.47503C7.64348 1.81861 7.37505 1.18908 6.89724 0.72492C6.41943 0.260762 5.77138 0 5.09565 0ZM8.28043 6.18758H1.91087C1.40408 6.18758 0.918038 6.38315 0.559681 6.73127C0.201323 7.07939 0 7.55154 0 8.04385C0 9.42492 0.584726 10.5313 1.54398 11.28C2.48795 12.0163 3.75422 12.3752 5.09565 12.3752C6.43708 12.3752 7.70335 12.0163 8.64732 11.28C9.6053 10.5313 10.1913 9.42492 10.1913 8.04385C10.1913 7.55154 9.98998 7.07939 9.63162 6.73127C9.27327 6.38315 8.78723 6.18758 8.28043 6.18758Z" fill="#9F9F9F"/>
</svg>
